<?xml version="1.0" encoding="UTF-8"?>
<svg width="358.6mm" height="28.0mm" viewBox="0 0 358.6 28.0" xmlns="http://www.w3.org/2000/svg">
  <g fill="#7B7BEF">
    <rect x="-2.00" y="0" width="9.00" height="28.00" />
    <rect x="12.00" y="0" width="8.83" height="28.00" />
    <rect x="25.83" y="0" width="8.67" height="28.00" />
    <rect x="39.50" y="0" width="8.50" height="28.00" />
    <rect x="53.00" y="0" width="8.33" height="28.00" />
    <rect x="66.33" y="0" width="8.17" height="28.00" />
    <rect x="79.50" y="0" width="8.00" height="28.00" />
    <rect x="92.50" y="0" width="7.83" height="28.00" />
    <rect x="105.33" y="0" width="7.67" height="28.00" />
    <rect x="118.00" y="0" width="7.50" height="28.00" />
    <rect x="130.50" y="0" width="7.33" height="28.00" />
    <rect x="142.83" y="0" width="7.17" height="28.00" />
    <rect x="155.00" y="0" width="7.00" height="28.00" />
    <rect x="167.00" y="0" width="6.83" height="28.00" />
    <rect x="178.83" y="0" width="6.67" height="28.00" />
    <rect x="190.50" y="0" width="6.50" height="28.00" />
    <rect x="202.00" y="0" width="6.33" height="28.00" />
    <rect x="213.33" y="0" width="6.17" height="28.00" />
    <rect x="224.50" y="0" width="6.00" height="28.00" />
    <rect x="235.50" y="0" width="5.83" height="28.00" />
    <rect x="246.33" y="0" width="5.67" height="28.00" />
    <rect x="257.00" y="0" width="5.50" height="28.00" />
    <rect x="267.50" y="0" width="5.33" height="28.00" />
    <rect x="277.83" y="0" width="5.17" height="28.00" />
    <rect x="288.00" y="0" width="5.00" height="28.00" />
    <rect x="298.00" y="0" width="4.83" height="28.00" />
    <rect x="307.83" y="0" width="4.67" height="28.00" />
    <rect x="317.50" y="0" width="4.50" height="28.00" />
  </g>
</svg>
